# xmcd
#
# Track frame offsets: 
#        150
#        19339
#        34611
#        52313
#        70693
#        94797
#        112607
#        140289
#        158228
#        179410
#        215679
#        233869
#        253664
#
# Disc length: 3549 seconds
#
# Revision: 0
# Processed by: cddbd v1.4PL0 Copyright (c) Steve Scherf et al.
# Submitted via: ExactAudioCopy v0.90b4
#
DISCID=b20ddb0d
DTITLE=All in one Day - Lorna Hunt
DYEAR=1900
DGENRE=Blues
TTITLE0=Long Hard Road
TTITLE1=Crazy Mary
TTITLE2=All In One Day
TTITLE3=Trying Not To Blink
TTITLE4=Piece Of My Heart
TTITLE5=Powered Diamonds
TTITLE6=Winter Time Cowboy
TTITLE7=Cut Glass Flowers
TTITLE8=Don't Forget Me
TTITLE9=Whipping Post
TTITLE10=How Long
TTITLE11=Love Sick
TTITLE12=She Rise
EXTD=
EXTT0=
EXTT1=
EXTT2=
EXTT3=
EXTT4=
EXTT5=
EXTT6=
EXTT7=
EXTT8=
EXTT9=
EXTT10=
EXTT11=
EXTT12=
PLAYORDER=
